<?xml version="1.0" encoding="UTF-8"?>
<!-- Created with Inkscape (http://www.inkscape.org/) -->
<svg width="210mm" height="297mm" version="1.1" viewBox="0 0 210 297" xmlns="http://www.w3.org/2000/svg" xmlns:cc="http://creativecommons.org/ns#" xmlns:dc="http://purl.org/dc/elements/1.1/" xmlns:osb="http://www.openswatchbook.org/uri/2009/osb" xmlns:rdf="http://www.w3.org/1999/02/22-rdf-syntax-ns#">
 <metadata>
  <rdf:RDF>
   <cc:Work rdf:about="">
    <dc:format>image/svg+xml</dc:format>
    <dc:type rdf:resource="http://purl.org/dc/dcmitype/StillImage"/>
    <dc:title/>
   </cc:Work>
  </rdf:RDF>
 </metadata>
 <path d="m101.99 62.988a77.774 77.774 0 0 0-77.774 77.774 77.774 77.774 0 0 0 4.7059 26.44 35.537 35.537 0 0 1 21.011-6.9268 35.537 35.537 0 0 1 26.077 11.441l15.719-33.261-19.055-35.999s-0.53331-3.1772 2.8375-4.6406c4.6919-2.0369 7.5511 2.3332 7.5511 2.3332l20.282 38.307-20.282 42.917h-0.70634a35.537 35.537 0 0 1 3.114 14.44 35.537 35.537 0 0 1-5.8103 19.416 77.774 77.774 0 0 0 22.33 3.3069 77.774 77.774 0 0 0 77.774-77.774 77.774 77.774 0 0 0-77.774-77.774zm8.7541 56.736h0.64255c1.8919 0 3.1896 0.78986 3.8917 2.3697l4.5343 10.328 4.5343-10.328c0.68263-1.5798 1.9804-2.3697 3.8917-2.3697h0.11696c2.0869 0 3.5685 0.77115 4.4462 2.312 0.76066 1.4043 0.68276 2.9155-0.23393 4.5343l-6.8751 12.053 6.8751 11.321c0.9947 1.6188 1.0726 3.2188 0.23393 4.7986-0.81917 1.5798-2.3008 2.3697-4.4462 2.3697h-0.11696c-1.8724 0-3.1701-0.78986-3.8917-2.3697l-4.5343-9.9466-4.5343 9.9466c-0.72164 1.5798-2.0194 2.3697-3.8917 2.3697h-0.64255c-1.7358 0-3.0336-0.78986-3.8917-2.3697-0.87767-1.5408-0.80914-3.1408 0.20507-4.7986l6.904-11.321-6.904-12.053c-0.89718-1.5603-0.96572-3.0715-0.20507-4.5343 0.76065-1.5408 2.0584-2.312 3.8917-2.312zm-68.576 0.38127h2.5747c1.5213 0 2.6913 0.60448 3.5105 1.8137l15.389 22.79-0.55597-20.334c-0.0195-1.1507 0.40894-2.1649 1.2866-3.0426 0.85817-0.81917 1.8536-1.2274 2.9849-1.2274h0.11697c1.5408 0 2.7295 0.40821 3.5682 1.2274 0.81917 0.81916 1.2289 1.8334 1.2289 3.0426v25.629c0 1.1312-0.65277 2.7312-1.9595 4.7986-1.1117 1.3653-2.7117 2.0476-4.7986 2.0476h-0.17468c-2.4965 0-4.4174-1.103-5.7632-3.3069l-13.02-21.239 0.5271 20.215c0.0195 1.1117-0.39022 2.1259-1.2289 3.0426-0.81917 0.85818-1.8334 1.2881-3.0426 1.2881h-0.11696c-1.5018 0-2.6718-0.42995-3.5105-1.2881-0.85817-0.81916-1.2881-1.8334-1.2881-3.0426v-28.144c0-1.1702 0.42996-2.1844 1.2881-3.0426 0.78016-0.81917 1.7741-1.2274 2.9834-1.2274zm98.446 0h22.439c0.9752 0 1.7557 0.36926 2.3408 1.1104 0.68264 0.91669 0.85715 1.9309 0.52558 3.0426v0.11696c-0.15603 0.62413-0.50657 1.1616-1.0527 1.6102-0.64362 0.46809-1.2481 0.6722-1.8137 0.61369l-6.7293-0.52558v26.563c0 1.2872-0.42844 2.3606-1.2866 3.2188-0.85818 0.85817-1.9316 1.2866-3.2188 1.2866h-0.0289c-1.2678 0-2.3209-0.42844-3.1596-1.2866-0.85817-0.85817-1.2866-1.9316-1.2866-3.2188v-26.563l-6.7293 0.52558c-0.64364 0.0585-1.2481-0.1456-1.8137-0.61369-0.60462-0.5266-0.95668-1.064-1.0542-1.6102v-0.11696c-0.29256-1.2092-0.11653-2.2234 0.5271-3.0426 0.58512-0.74115 1.3656-1.1104 2.3408-1.1104z" fill="#800080" stroke-width=".77774"/>
 <circle transform="scale(-1)" cx="-50.326" cy="-194.65" r="26.11" fill="#fe0080" stroke-width=".2611"/>
</svg>
