<?xml version="1.0" standalone="no"?>
<!DOCTYPE svg PUBLIC "-//W3C//DTD SVG 20010904//EN"
 "http://www.w3.org/TR/2001/REC-SVG-20010904/DTD/svg10.dtd">
<svg version="1.0" xmlns="http://www.w3.org/2000/svg"
 width="596.000000pt" height="596.000000pt" viewBox="0 0 596.000000 596.000000"
 preserveAspectRatio="xMidYMid meet">
<metadata>
Created by potrace 1.11, written by Peter Selinger 2001-2013
</metadata>
<g transform="translate(0.000000,596.000000) scale(0.100000,-0.100000)"
fill="#000000" stroke="none">
<path d="M2789 5956 c-2 -2 -41 -6 -87 -10 -134 -9 -283 -36 -462 -81 -184
-46 -315 -94 -549 -202 -68 -31 -266 -146 -351 -203 -250 -169 -467 -370 -670
-619 -19 -24 -39 -51 -44 -60 -5 -9 -12 -18 -16 -21 -4 -3 -34 -45 -67 -95
-245 -368 -390 -731 -463 -1165 -6 -36 -13 -76 -15 -90 -20 -118 -27 -488 -12
-660 5 -52 10 -97 12 -100 1 -3 6 -29 9 -58 3 -30 11 -73 16 -95 5 -23 12 -58
15 -77 16 -93 103 -390 114 -390 4 0 31 16 61 36 362 236 825 283 1226 124
158 -63 325 -171 443 -287 24 -24 45 -43 48 -43 4 0 48 92 148 305 18 39 60
126 93 195 33 69 93 197 135 285 41 88 104 221 140 297 76 159 82 175 69 191
-5 7 -32 55 -59 107 -124 235 -150 284 -223 420 -42 80 -101 190 -129 244
-102 194 -244 462 -273 516 -24 45 -29 62 -23 94 17 107 140 174 255 140 71
-21 133 -85 188 -194 43 -88 128 -248 199 -380 22 -41 64 -120 93 -175 29 -55
70 -131 90 -170 20 -38 63 -119 95 -180 32 -60 72 -137 90 -170 18 -33 58
-108 89 -166 l56 -107 -18 -43 c-11 -24 -42 -91 -70 -149 -27 -58 -66 -139
-85 -180 -37 -78 -117 -248 -194 -410 -25 -52 -63 -132 -84 -177 -73 -155
-116 -248 -171 -363 -31 -63 -75 -157 -99 -208 -24 -50 -49 -92 -56 -92 -16 0
-17 5 12 -71 75 -191 102 -387 82 -609 -6 -70 -9 -91 -22 -148 -3 -12 -7 -31
-9 -42 -17 -75 -59 -182 -112 -287 -34 -68 -59 -125 -55 -128 24 -14 324 -79
420 -90 19 -2 48 -6 65 -9 202 -31 546 -25 796 13 952 148 1764 746 2193 1616
157 319 246 638 287 1035 8 75 5 499 -4 555 -2 17 -7 55 -11 85 -3 30 -18 111
-32 180 -31 154 -27 137 -42 190 -7 25 -14 52 -16 60 -2 8 -15 51 -30 95 -149
449 -403 857 -735 1181 -47 45 -96 92 -110 104 -14 12 -39 34 -57 50 -55 50
-238 183 -340 247 -133 82 -433 233 -465 233 -8 0 -18 4 -23 9 -10 8 -201 72
-315 105 -55 16 -172 40 -244 52 -21 3 -46 7 -55 9 -9 1 -39 6 -66 9 -28 4
-64 9 -80 12 -36 6 -491 14 -496 10z m628 -2159 c42 -22 52 -39 122 -198 32
-74 71 -162 87 -197 l29 -63 84 193 c115 265 129 281 236 281 111 1 185 -61
187 -154 1 -53 -4 -63 -164 -342 -67 -117 -117 -215 -114 -223 3 -8 56 -97
118 -197 166 -269 178 -299 155 -375 -13 -40 -58 -89 -96 -104 -41 -15 -133
-13 -168 5 -44 23 -59 49 -148 247 -43 96 -82 179 -86 184 -4 4 -20 -18 -35
-50 -14 -33 -55 -122 -91 -198 -35 -77 -69 -146 -75 -153 -38 -46 -163 -62
-226 -29 -43 22 -84 87 -89 140 -6 53 2 69 144 300 58 94 114 187 125 206 l19
35 -140 245 c-85 148 -142 259 -145 280 -9 73 45 162 109 179 46 12 126 6 162
-12z m-2550 -2 c18 -3 43 -19 60 -38 24 -27 172 -240 223 -321 25 -40 322
-478 352 -520 l28 -40 -4 175 c-3 96 -8 278 -11 404 l-7 230 24 35 c13 19 39
45 58 58 30 20 45 23 100 20 74 -4 119 -29 147 -81 16 -29 18 -82 19 -547 1
-569 3 -555 -65 -662 -75 -117 -281 -125 -379 -14 -15 18 -137 211 -271 429
-134 218 -246 397 -251 397 -4 0 -6 -15 -5 -32 4 -40 18 -609 18 -694 -1 -113
-70 -184 -174 -178 -91 4 -150 51 -166 130 -10 47 -9 1084 1 1135 9 50 65 106
114 114 20 4 41 8 46 9 13 3 105 -3 143 -9z m4436 6 c19 -1 41 -13 63 -35 28
-28 34 -41 34 -77 0 -52 -15 -85 -50 -111 -30 -22 -46 -23 -170 -13 -52 4
-106 8 -120 9 l-25 1 -1 -527 0 -526 -27 -41 c-32 -48 -74 -72 -133 -76 -79
-4 -153 46 -172 119 -4 17 -8 261 -8 542 l1 511 -30 -3 c-87 -8 -223 -17 -245
-16 -33 2 -90 64 -91 99 -4 88 29 133 105 145 16 2 777 1 869 -1z"/>
<path d="M885 1963 c-139 -21 -300 -85 -416 -164 -94 -63 -226 -202 -283 -297
-103 -172 -148 -345 -141 -547 4 -152 27 -255 86 -380 159 -342 489 -560 864
-571 224 -6 408 47 590 169 76 51 209 184 258 260 76 114 136 260 152 368 4
24 9 47 12 52 6 10 6 221 -1 262 -45 283 -177 502 -401 670 -101 75 -254 142
-390 171 -38 8 -290 14 -330 7z"/>
</g>
</svg>
